<svg xmlns="http://www.w3.org/2000/svg" viewBox="0 0 65.61 65.61"><defs><style>.cls-1{fill:#2250b4;}</style></defs><g id="Layer_2" data-name="Layer 2"><g id="Layer_2-2" data-name="Layer 2"><path class="cls-1" d="M30.19,30.88a1.93,1.93,0,0,0,1.9-1.6l1.28-7.69a1.93,1.93,0,0,0-1.9-2.24H21.27A9.62,9.62,0,0,0,11.86,27H1.92A1.92,1.92,0,0,0,0,29v7.69a1.92,1.92,0,0,0,1.92,1.92h9.94a9.61,9.61,0,0,0,9.41,7.69h5.08a1.91,1.91,0,0,0,1.89-1.6L29.52,37a1.92,1.92,0,0,0-1.89-2.24H23.2V30.88ZM3.84,34.73V30.88H19.35v3.85Z"/><path class="cls-1" d="M63.69,27H53.76a9.63,9.63,0,0,0-9.42-7.69H39.27A1.93,1.93,0,0,0,37.37,21l-1.28,7.69A1.92,1.92,0,0,0,38,30.88h4.43v3.85h-7a1.91,1.91,0,0,0-1.89,1.61L32.24,44a1.93,1.93,0,0,0,1.9,2.24h10.2a9.62,9.62,0,0,0,9.42-7.69h9.93a1.92,1.92,0,0,0,1.92-1.92V29A1.92,1.92,0,0,0,63.69,27Zm-1.92,7.69H46.26V30.88H61.77Z"/><path class="cls-1" d="M44.08,52.34a1.92,1.92,0,1,0-3.33,1.92l3.85,6.66A1.92,1.92,0,0,0,47.93,59Z"/><path class="cls-1" d="M21.53,13.28a1.92,1.92,0,0,0,3.33-1.93L21,4.69a1.92,1.92,0,0,0-3.33,1.93Z"/><path class="cls-1" d="M24.16,51.63a1.93,1.93,0,0,0-2.63.71L17.69,59a1.91,1.91,0,0,0,.7,2.62,1.93,1.93,0,0,0,2.63-.7l3.84-6.66A1.93,1.93,0,0,0,24.16,51.63Z"/><path class="cls-1" d="M41.46,14a1.92,1.92,0,0,0,2.62-.7l3.85-6.66A1.92,1.92,0,0,0,44.6,4.69l-3.85,6.66A1.93,1.93,0,0,0,41.46,14Z"/><path class="cls-1" d="M32.81,54a1.92,1.92,0,0,0-1.93,1.92v7.82a1.93,1.93,0,0,0,3.85,0V55.87A1.92,1.92,0,0,0,32.81,54Z"/><path class="cls-1" d="M32.81,11.66a1.92,1.92,0,0,0,1.92-1.92V1.92a1.93,1.93,0,0,0-3.85,0V9.74A1.92,1.92,0,0,0,32.81,11.66Z"/></g></g></svg>