<svg xmlns="http://www.w3.org/2000/svg" viewBox="0 0 65.97 65.97"><defs><style>.cls-1{fill:#fff;}</style></defs><g id="Layer_2" data-name="Layer 2"><g id="Layer_2-2" data-name="Layer 2"><path class="cls-1" d="M65.07,28.2l-5.5-5h0L34.83.72a2.74,2.74,0,0,0-3.7,0L6.4,23.21h0l-5.5,5a2.75,2.75,0,1,0,3.7,4.07l.9-.82V63.22A2.75,2.75,0,0,0,8.25,66H22V44a11,11,0,0,1,22,0V66H57.72a2.75,2.75,0,0,0,2.75-2.75V31.45l.9.82a2.75,2.75,0,0,0,3.7-4.07"/><path class="cls-1" d="M33,38.48A5.5,5.5,0,0,0,27.49,44V66h11V44a5.5,5.5,0,0,0-5.5-5.5"/></g></g></svg>