<svg xmlns="http://www.w3.org/2000/svg" viewBox="0 0 90 89.95"><defs><style>.cls-1{fill:#224cff;}</style></defs><g id="Layer_2" data-name="Layer 2"><g id="Layer_2-2" data-name="Layer 2"><path class="cls-1" d="M40.48,29.77c0-.11-.1-.21-.14-.32a12.9,12.9,0,0,1,9.29-18c9.43-1.71,13.93,3,13.93,3a10.32,10.32,0,0,0-10.1,3c-3.36,4.44,5.75,13.06,12.26,17.08a17.91,17.91,0,0,1,8.76,15.16,25.18,25.18,0,0,1-3.24,11.67,35.38,35.38,0,0,1-8.58,10.29c-8,6.66-12.36,12.88-14.59,18.25a45,45,0,1,0-37-74.41C-1.18,31.57,40.48,29.77,40.48,29.77Z"/><path class="cls-1" d="M51.58,62.25A11.69,11.69,0,0,0,40.1,47.89c-9.07,0-20.78-.06-24.6-.1A22.76,22.76,0,0,1,13,47.65c-6-.74-10.12-3-12.9-5.74C.05,42.93,0,44,0,45a45.72,45.72,0,0,0,.94,9.2c6.41,4.41,17.65,7.42,37.33,3.63,0,0-20.68,9.74-34.27,5.71a45.18,45.18,0,0,0,8.62,12.7c4.1.85,9.75.7,17.57-1.54a47.4,47.4,0,0,1-13.68,5.13A44.82,44.82,0,0,0,43,90,55.15,55.15,0,0,1,47.78,73.3,72.34,72.34,0,0,0,51.58,62.25Z"/></g></g></svg>