<svg xmlns="http://www.w3.org/2000/svg" viewBox="0 0 43.68 64.19"><defs><style>.cls-1{fill:#2250b4;}</style></defs><g id="Layer_2" data-name="Layer 2"><g id="Layer_2-2" data-name="Layer 2"><path class="cls-1" d="M43.68,43.79H24.89V34.84H0V16.47H6.76V14.38A4.37,4.37,0,0,1,11.13,10H13.2V7.24h-6A3.62,3.62,0,0,1,7.17,0H26.46a3.62,3.62,0,0,1,0,7.24h-6V10H22.5a4.37,4.37,0,0,1,4.37,4.36v2.09H30A13.67,13.67,0,0,1,43.68,30.11ZM28.6,40.07H40v-10A9.94,9.94,0,0,0,30,20.19H23.15V14.38a.65.65,0,0,0-.65-.64H11.13a.65.65,0,0,0-.65.64v5.81H3.72V31.12h22.6a2.29,2.29,0,0,1,2.28,2.29Z"/><path class="cls-1" d="M41.72,57.1c0-.08,0-.16,0-.23a15,15,0,0,0-6.54-11.18s-5.93,5.78-6.53,11.06a6,6,0,0,0-.06.85,6.59,6.59,0,1,0,13.17,0S41.74,57.41,41.72,57.1Z"/></g></g></svg>