<svg xmlns="http://www.w3.org/2000/svg" viewBox="0 0 289.7 201.33"><defs><style>.cls-1{fill:#2250b4;}</style></defs><g id="Layer_2" data-name="Layer 2"><g id="Layer_2-2" data-name="Layer 2"><path d="M69,131.1h3l2.25,19.12a12.12,12.12,0,0,0,7.18-2.94c1.79-1.66,2.62-4.17,2.5-7.55v-1a5.84,5.84,0,0,0-1.24-3.87A5.07,5.07,0,0,0,79,133.26L77,133.15l.19-2.4,2.17.15a8.23,8.23,0,0,1,5.36,2,7.52,7.52,0,0,1,2.07,5.42l0,1.09q.23,6.66-3.95,9.91T71.6,153Z"/><path d="M89.83,150.22h6.73V137.33a4.37,4.37,0,0,0-.75-2.81,3.56,3.56,0,0,0-2.27-1.14L91,133l.43-2.32,3.36.5a5.55,5.55,0,0,1,3.56,1.92,6.41,6.41,0,0,1,1.24,4.16v15.33H89.83Z"/><path d="M121.06,150.22v2.36H104.19v-2.36h11.14v-12a5.05,5.05,0,0,0-1.08-3.62,4.16,4.16,0,0,0-3.1-1.1h-7V131.1h7.62q6.51,0,6.5,7.2v11.92Z"/><path d="M139.22,131.1v2.51l-7.47,19h-3l7.47-19.12h-12v-8.63H127v6.27Z"/><path d="M153.65,138a8,8,0,0,1,1.09-4.53h-3.87V131.1h9.71v2.36h-3.06a9.12,9.12,0,0,0-.89,4.53v14.59h-3Z"/><path d="M164.45,150.22h5.11a5.94,5.94,0,0,0,4.72-1.82,7.88,7.88,0,0,0,1.59-5.34v-2.44a7.88,7.88,0,0,0-1.59-5.34,5.91,5.91,0,0,0-4.72-1.82h-5.11V131.1h5.69a8.3,8.3,0,0,1,6.45,2.47c1.51,1.66,2.26,4,2.26,7.16v2.21q0,4.68-2.26,7.16a8.3,8.3,0,0,1-6.45,2.48h-5.69Z"/><path d="M193.56,138.18a5,5,0,0,0-1.09-3.62,4.15,4.15,0,0,0-3.09-1.1h-6.85V131.1H190q6.5,0,6.5,7.2v14.28h-3Z"/><path d="M218.39,150.06a7.9,7.9,0,0,1-6.6,2.94,16.12,16.12,0,0,1-3.18-.34l.31-2.37a11,11,0,0,0,2.64.31,5.36,5.36,0,0,0,4.74-2.22q1.53-2.24,1.53-6.64,0-8.43-5.54-8.44a4.74,4.74,0,0,0-3.37,1.2,6.18,6.18,0,0,0-1.74,3.14l-2.75,14.94h-3l2.87-15.06-3-6.42h3.09l1.94,4.64a6.93,6.93,0,0,1,2.48-3.66,6.48,6.48,0,0,1,3.87-1.22,7.23,7.23,0,0,1,5.82,2.54c1.44,1.69,2.15,4.43,2.15,8.22S219.92,148.1,218.39,150.06Z"/><path d="M11.21,180.93a5.33,5.33,0,0,0-1.16-3.84,4.33,4.33,0,0,0-3.24-1.17H0V174.3H7.17q6,0,6,6.67v20.36H11.21Z"/><path d="M16.72,193.11a4.13,4.13,0,0,0,3.05-1.3,5,5,0,0,0,.84-3.24V174.3h8.15q6,0,6,6.67v13.15h-2V180.93a5.33,5.33,0,0,0-1.15-3.84,4.35,4.35,0,0,0-3.24-1.17H22.56v12.47a6.55,6.55,0,0,1-1.33,4.43,6.2,6.2,0,0,1-4.29,1.77Z"/><path d="M40.29,178.52l-.47-4.22h2l.5,4.22v15.6h-2Z"/><path d="M60.94,194.12l-8.69-12.9-4.07,12.9H46.27l3.93-12.4.94-2.27-3.28-5.15h2l3.28,5.15,3.64,5.41.79-2.88L60,174.3H62l-4,12.29,5.12,7.53Z"/><path d="M86.41,180.93a5.37,5.37,0,0,0-1.13-3.84,4.29,4.29,0,0,0-3.23-1.17H74V174.3h8.43q6,0,6,6.67v13.15h-2ZM74,184.43l.28-2.42h1.7v12.11H74Z"/><path d="M108.32,191.81a7.08,7.08,0,0,1-6,2.71,13.26,13.26,0,0,1-2.84-.33l.21-1.62a10.81,10.81,0,0,0,2.52.29q6.28,0,6.28-8.9c0-5.45-1.86-8.18-5.55-8.18A4.6,4.6,0,0,0,99.62,177a6.7,6.7,0,0,0-1.78,3.13l-2.63,14h-2L96,180.07l-2.77-5.77h2l2,4.4a6.35,6.35,0,0,1,2.32-3.41,6.18,6.18,0,0,1,3.63-1.13,6.69,6.69,0,0,1,5.28,2.27q2,2.26,2,7.57Q110.42,189.12,108.32,191.81Z"/><path d="M115.35,178.52l-.47-4.22h2l.5,4.22v5.29l0,2.27-2,.47Z"/><path d="M135.14,174.3V176L128,194.12h-2l7.1-18.2H121.69v-7.64h1.88v6Z"/><path d="M153,190.55q-3.92,3.75-11.73,3.93l-2.49-20.18h1.91L142,185a12.15,12.15,0,0,0,2.86-2.06,6.52,6.52,0,0,0,1.54-2.55,14.27,14.27,0,0,0,.57-3.9v-2.09h1.91v2.06a15,15,0,0,1-.79,4.54,8.36,8.36,0,0,1-2.09,3.17,14.71,14.71,0,0,1-3.79,2.48l.73,6.06q5.91-.39,9-3.62t3-9.82l0-4.94h2l0,4.9C156.93,184.27,155.63,188.05,153,190.55Z"/><path d="M176.36,191.81a7.09,7.09,0,0,1-6,2.71,13.42,13.42,0,0,1-2.85-.33l.22-1.62a10.75,10.75,0,0,0,2.52.29q6.27,0,6.27-8.9,0-8.18-5.55-8.18a4.59,4.59,0,0,0-3.33,1.19,6.7,6.7,0,0,0-1.78,3.13l-2.64,14h-2L164,180.07l-2.77-5.77h2l2,4.4a6.35,6.35,0,0,1,2.32-3.41,6.17,6.17,0,0,1,3.62-1.13,6.66,6.66,0,0,1,5.28,2.27c1.34,1.51,2,4,2,7.57S177.75,190,176.36,191.81Z"/><path d="M196.49,190.55q-3.92,3.75-11.73,3.93l-2.49-20.18h1.91l1.3,10.67a12.15,12.15,0,0,0,2.86-2.06,6.52,6.52,0,0,0,1.54-2.55,14.27,14.27,0,0,0,.57-3.9v-2.09h1.91v2.06a15,15,0,0,1-.79,4.54,8.36,8.36,0,0,1-2.09,3.17,14.71,14.71,0,0,1-3.79,2.48l.73,6.06q5.91-.39,9-3.62t3-9.82l0-4.94h2l0,4.9C200.39,184.27,199.09,188.05,196.49,190.55Z"/><path d="M224.47,180.93a5.37,5.37,0,0,0-1.14-3.84,4.27,4.27,0,0,0-3.22-1.17H212V174.3h8.43q6,0,6,6.67v13.15h-2ZM212,184.43l.29-2.42H214v12.11h-2Z"/><path d="M245.05,194.12l-8.69-12.9-4.07,12.9h-1.91l3.93-12.4.93-2.27L232,174.3H234l3.28,5.15,3.64,5.41.79-2.88,2.42-7.68h1.94l-4,12.29,5.12,7.53Z"/><path d="M251.57,178.52l-.47-4.22h2l.5,4.22v15.6h-2Z"/><path d="M259.24,192.46h5.45a7.18,7.18,0,0,0,4.93-1.62q1.85-1.62,1.84-5.62v-2.09q0-7.2-5.44-7.21h-4.14l-1.05,4.33a9.76,9.76,0,0,0-.29,2.05,3,3,0,0,0,.72,2.11,4.13,4.13,0,0,0,2.38,1.06l-.5,1.52a5.66,5.66,0,0,1-3.35-1.48,4.36,4.36,0,0,1-1.05-3.1,10.52,10.52,0,0,1,.25-2.27l1.37-5.84h5.91a6.49,6.49,0,0,1,5.28,2.24c1.24,1.49,1.86,3.68,1.86,6.59v2c0,3.19-.78,5.49-2.35,6.88a8.86,8.86,0,0,1-6.12,2.09h-5.7Z"/><path d="M287.71,180.93a5.42,5.42,0,0,0-1.13-3.84,4.29,4.29,0,0,0-3.23-1.17h-6.16V174.3h6.49q6,0,6,6.67v13.15h-2Z"/><path class="cls-1" d="M140.33,29.77l-.15-.32a12.92,12.92,0,0,1,9.29-18c9.43-1.71,13.94,3,13.94,3a10.32,10.32,0,0,0-10.1,3c-3.36,4.44,5.75,13.06,12.26,17.08a17.91,17.91,0,0,1,8.76,15.16,25.3,25.3,0,0,1-3.24,11.67,35.38,35.38,0,0,1-8.58,10.29c-8,6.66-12.36,12.88-14.59,18.25a45,45,0,1,0-37-74.41C98.67,31.57,140.33,29.77,140.33,29.77Z"/><path class="cls-1" d="M151.43,62.25A11.69,11.69,0,0,0,140,47.89c-9.07,0-20.78-.06-24.6-.1a22.76,22.76,0,0,1-2.48-.14c-6-.74-10.12-3-12.91-5.74-.06,1-.11,2.05-.11,3.09a45,45,0,0,0,.94,9.2c6.41,4.41,17.65,7.42,37.33,3.63,0,0-20.68,9.74-34.27,5.71a45.18,45.18,0,0,0,8.62,12.7c4.09.85,9.75.7,17.57-1.54a47.4,47.4,0,0,1-13.68,5.13A44.82,44.82,0,0,0,142.81,90a55,55,0,0,1,4.81-16.65A71.45,71.45,0,0,0,151.43,62.25Z"/></g></g></svg>