<svg xmlns="http://www.w3.org/2000/svg" viewBox="0 0 65.29 65.25"><defs><style>.cls-1{fill:#fff;}</style></defs><g id="Layer_2" data-name="Layer 2"><g id="Layer_2-2" data-name="Layer 2"><path id="Path_2067" data-name="Path 2067" class="cls-1" d="M29.36,21.6l-.11-.23a9.43,9.43,0,0,1,4.8-12.44,9.86,9.86,0,0,1,2.38-.7,11.17,11.17,0,0,1,9.67,2.22,7.48,7.48,0,0,0-7.33,2.2c-2.53,3.35,4.7,10,9.43,12.71a11.54,11.54,0,0,1,5.34,6.93c2.64,9.82-6.43,18.33-6.43,18.33A37.24,37.24,0,0,0,34.86,65.2,32.64,32.64,0,1,0,8,11.22C-.86,22.91,29.36,21.6,29.36,21.6Z"/><path id="Path_2068" data-name="Path 2068" class="cls-1" d="M37.38,45.31A8.52,8.52,0,0,0,31.16,35a8.72,8.72,0,0,0-2.09-.25c-6.23,0-14.18,0-17.35-.07a20.41,20.41,0,0,1-4-.38A14.86,14.86,0,0,1,.08,30.41C0,31.15,0,31.89,0,32.65a32.55,32.55,0,0,0,.69,6.67c4.64,3.2,12.8,5.38,27.07,2.63,0,0-15,7.07-24.86,4.14A32.5,32.5,0,0,0,9.16,55.3,26.89,26.89,0,0,0,21.9,54.19,34.35,34.35,0,0,1,12,57.91a32.52,32.52,0,0,0,19.19,7.34,40.17,40.17,0,0,1,3.49-12.08A51.83,51.83,0,0,0,37.38,45.31Z"/></g></g></svg>