<svg xmlns="http://www.w3.org/2000/svg" viewBox="0 0 64.93 64.93"><defs><style>.cls-1{fill:#2250b4;}</style></defs><g id="Layer_2" data-name="Layer 2"><g id="Layer_2-2" data-name="Layer 2"><path class="cls-1" d="M32.46,16.2A16.27,16.27,0,1,0,48.73,32.47,16.29,16.29,0,0,0,32.46,16.2Z"/><path class="cls-1" d="M32.46,11.42a3.17,3.17,0,0,1-3.17-3.17V3.17a3.17,3.17,0,0,1,6.34,0V8.25a3.16,3.16,0,0,1-3.17,3.17Z"/><path class="cls-1" d="M32.46,53.51a3.17,3.17,0,0,0-3.17,3.17v5.08a3.17,3.17,0,0,0,6.34,0V56.68a3.16,3.16,0,0,0-3.17-3.17Z"/><path class="cls-1" d="M47.34,17.58a3.16,3.16,0,0,1,0-4.48l3.59-3.59A3.17,3.17,0,0,1,55.42,14l-3.59,3.58a3.17,3.17,0,0,1-4.49,0Z"/><path class="cls-1" d="M17.58,47.34a3.16,3.16,0,0,0-4.48,0L9.51,50.93A3.17,3.17,0,0,0,14,55.42l3.58-3.59a3.17,3.17,0,0,0,0-4.49Z"/><path class="cls-1" d="M53.51,32.46a3.16,3.16,0,0,1,3.17-3.17h5.08a3.17,3.17,0,1,1,0,6.34H56.68a3.16,3.16,0,0,1-3.17-3.17Z"/><path class="cls-1" d="M11.42,32.46a3.17,3.17,0,0,0-3.17-3.17H3.17a3.17,3.17,0,0,0,0,6.34H8.25a3.16,3.16,0,0,0,3.17-3.17Z"/><path class="cls-1" d="M47.34,47.34a3.19,3.19,0,0,1,4.49,0l3.59,3.59a3.17,3.17,0,0,1-4.49,4.49l-3.59-3.59a3.17,3.17,0,0,1,0-4.49Z"/><path class="cls-1" d="M17.58,17.58a3.16,3.16,0,0,0,0-4.48L14,9.51A3.17,3.17,0,1,0,9.51,14l3.59,3.58a3.14,3.14,0,0,0,4.48,0Z"/></g></g></svg>