<svg xmlns="http://www.w3.org/2000/svg" viewBox="0 0 78.19 58.36"><defs><style>.cls-1{fill:none;}.cls-2{fill:#fff;}</style></defs><g id="Layer_2" data-name="Layer 2"><g id="Layer_2-2" data-name="Layer 2"><polygon class="cls-1" points="65.08 20.14 61.87 11.3 59.52 11.3 56.24 20.1 53.09 11.3 50.45 11.3 54.83 23.22 57.51 23.22 60.64 15.01 63.72 23.22 66.39 23.22 70.79 11.3 68.32 11.3 65.08 20.14"/><polygon class="cls-1" points="43.05 20.14 39.84 11.3 37.49 11.3 34.2 20.1 31.05 11.3 28.42 11.3 32.8 23.22 35.48 23.22 38.6 15.01 41.69 23.22 44.37 23.22 48.77 11.3 46.29 11.3 43.05 20.14"/><polygon class="cls-1" points="21.03 20.14 17.81 11.3 15.47 11.3 12.18 20.1 9.03 11.3 6.39 11.3 10.77 23.22 13.45 23.22 16.58 15.01 19.66 23.22 22.34 23.22 26.74 11.3 24.27 11.3 21.03 20.14"/><polygon class="cls-2" points="37.91 55.66 44.95 48.93 49.09 58.36 55.54 55.52 51.4 46.09 61.13 45.48 48.12 33.51 37.92 33.51 37.91 55.66"/><path class="cls-2" d="M70.48,0H7.7A7.71,7.71,0,0,0,0,7.7V25.81a7.71,7.71,0,0,0,7.7,7.7H37.92V24.13l10.2,9.38H70.48a7.72,7.72,0,0,0,7.71-7.7V7.7A7.71,7.71,0,0,0,70.48,0ZM22.34,23.22H19.66L16.58,15l-3.13,8.21H10.77L6.39,11.3H9l3.15,8.8,3.29-8.8h2.34L21,20.14l3.24-8.84h2.47Zm22,0H41.69L38.61,15l-3.13,8.21H32.8L28.42,11.3h2.63l3.16,8.8,3.28-8.8h2.35l3.21,8.84,3.24-8.84h2.48Zm22,0H63.72L60.64,15l-3.13,8.21H54.83L50.45,11.3h2.64l3.15,8.8,3.28-8.8h2.35l3.21,8.84,3.24-8.84h2.47Z"/></g></g></svg>