<svg xmlns="http://www.w3.org/2000/svg" viewBox="0 0 55.96 64.65"><defs><style>.cls-1{fill:#2250b4;}.cls-2{fill:#fff;}</style></defs><g id="Layer_2" data-name="Layer 2"><g id="Layer_2-2" data-name="Layer 2"><path class="cls-1" d="M45.5,47.89h-9a6.68,6.68,0,0,1-6.67-6.67V38.57H41c4.09,0,7.91-2.08,10.74-5.86A22.5,22.5,0,0,0,56,19.28a22.5,22.5,0,0,0-4.2-13.43C48.93,2.08,45.11,0,41,0H14.94C10.84,0,7,2.08,4.2,5.85A22.43,22.43,0,0,0,0,19.28V41.22A10.47,10.47,0,0,0,10.46,51.67h9a6.68,6.68,0,0,1,6.67,6.67v6.31H56v-6.3A10.48,10.48,0,0,0,45.5,47.89ZM14.94,38.57H26.08v2.65a10.46,10.46,0,0,0,2.41,6.67H17.39S14,45,14.94,38.57ZM41,3.79c2.87,0,5.61,1.54,7.71,4.33a18.66,18.66,0,0,1,3.44,11.16,18.64,18.64,0,0,1-3.44,11.16c-2.1,2.8-4.84,4.34-7.71,4.34H23.86a16.57,16.57,0,0,0,1.81-2.07,22.43,22.43,0,0,0,4.2-13.43,22.43,22.43,0,0,0-4.2-13.43,16.46,16.46,0,0,0-1.81-2.06ZM52.17,60.86H42.64a11.39,11.39,0,0,0-2.16-9.19h5a6.68,6.68,0,0,1,6.67,6.68Z"/><path class="cls-2" d="M14.94,27a5.79,5.79,0,0,0,4.59-2.45,8.79,8.79,0,0,0,1.65-5.24,8.78,8.78,0,0,0-1.65-5.23,5.8,5.8,0,0,0-4.59-2.46,5.79,5.79,0,0,0-4.59,2.46A8.71,8.71,0,0,0,8.7,19.28a8.72,8.72,0,0,0,1.65,5.24A5.78,5.78,0,0,0,14.94,27Zm0-11.59c1.16,0,2.45,1.6,2.45,3.9s-1.29,3.9-2.45,3.9-2.46-1.6-2.46-3.9,1.3-3.9,2.46-3.9Z"/></g></g></svg>