<svg xmlns="http://www.w3.org/2000/svg" viewBox="0 0 69.43 69.43"><defs><style>.cls-1{fill:#2250b4;}</style></defs><g id="Layer_2" data-name="Layer 2"><g id="Layer_2-2" data-name="Layer 2"><path class="cls-1" d="M29.62,5.07a11,11,0,0,0-.21,11.56,10.85,10.85,0,0,0,6.32,4.93L33,28.73,4.34,40.51A7.08,7.08,0,0,0,2.05,42,7,7,0,0,0,.14,48.36l.38,1.92a1.38,1.38,0,0,0,1.85,1l25.7-9.94-9.94,25.7a1.38,1.38,0,0,0,1,1.85l1.92.38a7,7,0,0,0,7.85-4.2L40.7,36.48l7.18-2.77a10.74,10.74,0,0,0,2.73,4.61,11,11,0,1,0,0-15.6,15.62,15.62,0,0,1-8.38,4.49,15.41,15.41,0,0,1,4.2-8.1C50.65,14.7,51,7.92,47.11,3.66c-.13-.15-.27-.29-.41-.43A10.93,10.93,0,0,0,38.06,0,11.07,11.07,0,0,0,29.62,5.07ZM62.3,26.62a5.52,5.52,0,1,1-7.8,0A5.52,5.52,0,0,1,62.3,26.62Zm-23.39,3.9a2.76,2.76,0,1,1-3.9,0A2.75,2.75,0,0,1,38.91,30.52Zm3.9-23.39a5.52,5.52,0,1,1-7.8,0A5.52,5.52,0,0,1,42.81,7.13Z"/></g></g></svg>