<svg xmlns="http://www.w3.org/2000/svg" viewBox="0 0 67.23 65.5"><defs><style>.cls-1{fill:#2250b4;}</style></defs><g id="Layer_2" data-name="Layer 2"><g id="Layer_2-2" data-name="Layer 2"><path class="cls-1" d="M28.83,44a4.72,4.72,0,0,1-4.71-4.72,2,2,0,0,1,4,0,.67.67,0,0,0,.67.67,2,2,0,0,1,0,4.05Z"/><path class="cls-1" d="M60.67,52.38a5.15,5.15,0,0,1-4.1-2c-2-2.63-4-5.4-6-8.24a2.7,2.7,0,0,0-4.41,3.11c2,2.89,4.11,5.72,6.17,8.4a10.55,10.55,0,0,0,8.38,4.11,1.17,1.17,0,1,1,0,2.34h-8a7.23,7.23,0,0,1-4.49-1.48,54,54,0,0,0-26-10.79,4.49,4.49,0,0,1-2.81-1.57,4.86,4.86,0,0,1-1.14-3.11,4.72,4.72,0,0,1,.82-2.67l1.07-1.64a6.14,6.14,0,0,0,.49-.76A11.47,11.47,0,0,0,20.78,27L14.54,15.22l14.11-2.67a2.69,2.69,0,0,0,2.42,1.55,2.57,2.57,0,0,0,.94-.18,2.69,2.69,0,0,0,1.59-3.46c-.94-2.52-1.79-5.1-2.51-7.66a2.41,2.41,0,0,0-.26-.59L30.44.68,0,0,2.87,4.79,16,29.49A6.12,6.12,0,0,1,16,35.44a3.43,3.43,0,0,1-.24.37l-1.13,1.71a10.17,10.17,0,0,0,.7,12.22,9.87,9.87,0,0,0,6.16,3.43,48.08,48.08,0,0,1,23.47,9.72A12.51,12.51,0,0,0,52.7,65.5h8a6.56,6.56,0,1,0,0-13.12Z"/><path class="cls-1" d="M41.07,37.57c1,1.62,1.69,2.62,1.71,2.66a2.4,2.4,0,0,0,2,1.07,2.34,2.34,0,0,0,1.33-.41,2.39,2.39,0,0,0,.66-3.31s-.66-1-1.65-2.56a2.39,2.39,0,1,0-4,2.55Z"/><path class="cls-1" d="M34.9,26.89c.88,1.7,1.89,3.52,3,5.41A2.39,2.39,0,1,0,42,29.9c-1.06-1.82-2-3.58-2.88-5.21a2.39,2.39,0,1,0-4.24,2.2Z"/><path class="cls-1" d="M32.55,15.14a2.38,2.38,0,0,0-1.51,3c.31.94.71,2,1.17,3.07a2.38,2.38,0,0,0,2.2,1.47,2.58,2.58,0,0,0,.93-.19,2.4,2.4,0,0,0,1.27-3.13c-.41-1-.76-1.9-1-2.73A2.39,2.39,0,0,0,32.55,15.14Z"/></g></g></svg>