<svg xmlns="http://www.w3.org/2000/svg" viewBox="0 0 65.67 65.67"><defs><style>.cls-1{fill:#224cff;}</style></defs><g id="Layer_2" data-name="Layer 2"><g id="Layer_2-2" data-name="Layer 2"><path id="Path_1633" data-name="Path 1633" class="cls-1" d="M17.91,29.85H0v6H17.91Zm6.48-9.67-6.33-6.33-4.21,4.21,6.33,6.33ZM35.82,0h-6V17.91h6Zm16,18.06-4.21-4.21-6.33,6.33,4.21,4.21ZM47.76,29.85v6H65.67v-6Zm-14.93-6a9,9,0,1,0,9,9A9,9,0,0,0,32.83,23.88Zm8.45,21.61,6.33,6.33,4.21-4.21-6.33-6.33ZM13.85,47.61l4.21,4.21,6.33-6.33-4.21-4.21Zm16,18.06h6V47.76h-6Z"/></g></g></svg>