<svg xmlns="http://www.w3.org/2000/svg" viewBox="0 0 65 65"><defs><style>.cls-1{fill:none;}.cls-2{fill:#2250b4;}</style></defs><g id="Layer_2" data-name="Layer 2"><g id="Layer_2-2" data-name="Layer 2"><path class="cls-1" d="M14.81,42.1a1.91,1.91,0,1,0,2.7,0A1.92,1.92,0,0,0,14.81,42.1Z"/><path class="cls-1" d="M14.81,52.88a1.91,1.91,0,1,0,2.7,0A1.91,1.91,0,0,0,14.81,52.88Z"/><path class="cls-1" d="M20.2,47.49a1.9,1.9,0,1,0,2.69,0A1.91,1.91,0,0,0,20.2,47.49Z"/><path class="cls-1" d="M9.42,47.49a1.91,1.91,0,1,0,2.7,0A1.91,1.91,0,0,0,9.42,47.49Z"/><path class="cls-1" d="M44.81,17.5a1.91,1.91,0,1,0-2.7,0A1.92,1.92,0,0,0,44.81,17.5Z"/><circle class="cls-1" cx="54.24" cy="16.15" r="1.9"/><path class="cls-1" d="M47.5,9.41a1.91,1.91,0,1,0,2.69,0A1.92,1.92,0,0,0,47.5,9.41Z"/><path class="cls-1" d="M47.5,20.19a1.9,1.9,0,1,0,2.69,0A1.91,1.91,0,0,0,47.5,20.19Z"/><path class="cls-1" d="M20.2,47.49a1.9,1.9,0,1,0,2.69,0A1.91,1.91,0,0,0,20.2,47.49Z"/><path class="cls-1" d="M14.81,42.1a1.91,1.91,0,1,0,2.7,0A1.92,1.92,0,0,0,14.81,42.1Z"/><path class="cls-1" d="M14.81,52.88a1.91,1.91,0,1,0,2.7,0A1.91,1.91,0,0,0,14.81,52.88Z"/><circle class="cls-1" cx="43.46" cy="16.15" r="1.9"/><path class="cls-1" d="M9.42,47.49a1.91,1.91,0,1,0,2.7,0A1.91,1.91,0,0,0,9.42,47.49Z"/><path class="cls-1" d="M47.5,9.41a1.91,1.91,0,1,0,2.69,0A1.92,1.92,0,0,0,47.5,9.41Z"/><path class="cls-1" d="M47.5,20.19a1.9,1.9,0,1,0,2.69,0A1.91,1.91,0,0,0,47.5,20.19Z"/><path class="cls-1" d="M52.89,14.8a1.91,1.91,0,1,0,2.69,0A1.9,1.9,0,0,0,52.89,14.8Z"/><path class="cls-2" d="M61.1,3.9a13.35,13.35,0,0,0-18.86,0L3.91,42.23A13.34,13.34,0,0,0,22.77,61.09L61.1,22.76A13.35,13.35,0,0,0,61.1,3.9Zm-49,46.28a1.91,1.91,0,1,1,0-2.69A1.9,1.9,0,0,1,12.12,50.18Zm5.39,5.39a1.91,1.91,0,1,1,0-2.69A1.9,1.9,0,0,1,17.51,55.57Zm0-10.77a1.91,1.91,0,1,1,0-2.7A1.92,1.92,0,0,1,17.51,44.8Zm5.38,5.38a1.9,1.9,0,1,1,0-2.69A1.89,1.89,0,0,1,22.89,50.18ZM42.6,28.89,29.33,42.16a1.54,1.54,0,0,1-2.16,0l-4.33-4.33a1.52,1.52,0,0,1,0-2.16L36.11,22.4a1.52,1.52,0,0,1,2.16,0l4.33,4.33A1.54,1.54,0,0,1,42.6,28.89ZM44.81,17.5a1.91,1.91,0,1,1,0-2.7A1.92,1.92,0,0,1,44.81,17.5Zm5.38,5.38a1.9,1.9,0,1,1,0-2.69A1.89,1.89,0,0,1,50.19,22.88Zm0-10.77a1.91,1.91,0,1,1,0-2.7A1.91,1.91,0,0,1,50.19,12.11Zm5.39,5.39a1.91,1.91,0,1,1,0-2.7A1.91,1.91,0,0,1,55.58,17.5Z"/></g></g></svg>