<svg xmlns="http://www.w3.org/2000/svg" viewBox="0 0 48.43 64.58"><defs><style>.cls-1{fill:#2250b4;}</style></defs><g id="Layer_2" data-name="Layer 2"><g id="Layer_2-2" data-name="Layer 2"><path class="cls-1" d="M48.29,37.81c-.74-9.63-5.22-15.67-9.18-21-3.66-4.93-6.82-9.19-6.82-15.47a1.34,1.34,0,0,0-.73-1.2,1.36,1.36,0,0,0-1.4.1A34.21,34.21,0,0,0,17.53,18.51a59.53,59.53,0,0,0-1.38,13.64C10.66,31,9.42,22.77,9.4,22.68a1.37,1.37,0,0,0-.7-1,1.35,1.35,0,0,0-1.22,0C7.2,21.8.42,25.24,0,39c0,.45,0,.91,0,1.37A24.24,24.24,0,0,0,24.22,64.57a0,0,0,0,0,.05,0h0A24.23,24.23,0,0,0,48.43,40.36C48.43,39.69,48.29,37.81,48.29,37.81ZM16.14,53.29c0-.17,0-.33,0-.53A11.14,11.14,0,0,1,17,48.49a4.93,4.93,0,0,0,4.45,3.22,1.35,1.35,0,0,0,1.34-1.35,26.8,26.8,0,0,1,.52-6.12A13,13,0,0,1,26,39.08a17.17,17.17,0,0,0,2.78,5.09c1.55,2.21,3.16,4.5,3.44,8.4,0,.23,0,.47,0,.72a8.35,8.35,0,0,1-8.07,8.59A8.35,8.35,0,0,1,16.14,53.29Z"/></g></g></svg>