<svg xmlns="http://www.w3.org/2000/svg" viewBox="0 0 65.03 65.03"><defs><style>.cls-1{fill:#2250b4;}</style></defs><g id="Layer_2" data-name="Layer 2"><g id="Layer_2-2" data-name="Layer 2"><path id="Path_2242" data-name="Path 2242" class="cls-1" d="M32.51,0A32.52,32.52,0,1,0,65,32.51h0A32.52,32.52,0,0,0,32.51,0Zm6.77,50.39c-1.67.66-3,1.16-4,1.51a10.8,10.8,0,0,1-3.48.52,6.89,6.89,0,0,1-4.72-1.5,4.77,4.77,0,0,1-1.68-3.76,13.79,13.79,0,0,1,.12-1.82c.09-.61.22-1.31.41-2.09L28,35.86c.18-.71.34-1.38.47-2a9.18,9.18,0,0,0,.19-1.74,2.69,2.69,0,0,0-.59-2,3.27,3.27,0,0,0-2.23-.55,5.54,5.54,0,0,0-1.67.25c-.55.17-1.05.33-1.45.48L23.29,28c1.37-.55,2.68-1,3.93-1.43a11.3,11.3,0,0,1,3.55-.6,6.77,6.77,0,0,1,4.66,1.46,4.82,4.82,0,0,1,1.63,3.78c0,.32,0,.89-.11,1.7a10.46,10.46,0,0,1-.42,2.23l-2.08,7.38c-.17.59-.32,1.27-.46,2a10.92,10.92,0,0,0-.2,1.72,2.46,2.46,0,0,0,.66,2,3.71,3.71,0,0,0,2.27.54,6.73,6.73,0,0,0,1.73-.28,9.88,9.88,0,0,0,1.39-.47Zm-.37-29.94A4.94,4.94,0,0,1,35.4,21.8a5,5,0,0,1-3.52-1.35,4.43,4.43,0,0,1,0-6.59,5,5,0,0,1,3.52-1.37,4.92,4.92,0,0,1,3.51,1.37,4.43,4.43,0,0,1,.32,6.26c-.1.11-.21.22-.32.32Z"/></g></g></svg>