<svg xmlns="http://www.w3.org/2000/svg" viewBox="0 0 64.43 64.46"><defs><style>.cls-1{fill:#2250b4;}</style></defs><g id="Layer_2" data-name="Layer 2"><g id="Layer_2-2" data-name="Layer 2"><path class="cls-1" d="M0,31.86A10.63,10.63,0,0,1,16.12,23a3.38,3.38,0,0,0,3.81.12q10.45-5.31,21-10.48A3.41,3.41,0,0,0,43.15,9.5,10.36,10.36,0,0,1,51.57.19,10.68,10.68,0,0,1,63.28,5.86a10.82,10.82,0,0,1-2.17,12.63A10.54,10.54,0,0,1,48.41,20a3.53,3.53,0,0,0-4-.11c-7,3.6-14.13,7.09-21.17,10.68-.71.36-1.19,1.17-1.78,1.77a8.69,8.69,0,0,0,1.71,1.57c7.12,3.62,14.29,7.15,21.4,10.79a3.35,3.35,0,0,0,3.8-.17,10.59,10.59,0,0,1,15,4.59,10.76,10.76,0,0,1-5.6,14.58C52,66,44.84,63,43.69,56.9c-.75-4-3.07-5.32-6.07-6.77q-9-4.32-17.85-8.93a3.15,3.15,0,0,0-3.58.16,10.27,10.27,0,0,1-10.92.08A10.5,10.5,0,0,1,0,31.86Z"/></g></g></svg>