<svg xmlns="http://www.w3.org/2000/svg" viewBox="0 0 66.03 72.31"><defs><style>.cls-1{fill:#2250b4;}</style></defs><g id="Layer_2" data-name="Layer 2"><g id="Layer_2-2" data-name="Layer 2"><path class="cls-1" d="M38.59,29.06q10-10,19.93-19.93c2.06-2.05,4-2.31,5.54-.75s1.22,3.54-.82,5.58Q44.31,32.91,25.38,51.84a17,17,0,0,0-2,2.29,7,7,0,0,0,1.1,9.46,7.31,7.31,0,0,0,9.6,0A7.48,7.48,0,0,0,35.11,54c-2.14-3.11-2.24-4.86-.39-6.19,2-1.45,4.12-.61,6.2,2.5,3.84,5.77,2.87,14-2.19,18.48a14.17,14.17,0,0,1-18.13.47c-6-4.9-7.32-12-3.49-18.25a14.94,14.94,0,0,1,2.29-2.74Q29,38.64,38.59,29.06Z"/><path class="cls-1" d="M27.79,28.42c-4.14,4.14-8.26,8.31-12.43,12.42a8.87,8.87,0,0,1-12.44.3,9,9,0,0,1-.81-12.46,9.22,9.22,0,0,1,13-.9c1,.92,1.41,2,.55,3.18s-2,1.11-3.32.18c-2.61-1.87-5.61-1.61-7.1.62A4.81,4.81,0,0,0,5.94,38a4.63,4.63,0,0,0,6.39-.26c2.56-2.48,5-5,7.56-7.54L36.61,13.5c.39-.39.77-.79,1.18-1.15,1.11-1,2.33-1.06,3.2-.16a2.18,2.18,0,0,1-.2,3.21c-3,3-6,6-9,9.07l-3.95,3.94Z"/><path class="cls-1" d="M58.19,37.89c-2.17,2.17-4.31,4.37-6.51,6.5-1.76,1.7-3.84,1.85-5.21.46s-1.22-3.5.47-5.2c4.32-4.36,8.69-8.67,13-13,1.58-1.6,3.27-1.79,5-.41,1.56,1.26,1.43,3.41-.25,5.16C62.56,33.58,60.36,35.72,58.19,37.89Z"/><path class="cls-1" d="M27,9.36c-1.42,1.42-2.83,2.85-4.26,4.26a2.75,2.75,0,0,1-4.08.25c-1.21-1-1.16-2.69.15-4Q23.22,5.37,27.67,1c1.34-1.31,3-1.36,4-.16a2.75,2.75,0,0,1-.27,4.08C30,6.43,28.51,7.89,27,9.36Z"/></g></g></svg>