<svg xmlns="http://www.w3.org/2000/svg" viewBox="0 0 65.38 65.38"><defs><style>.cls-1{fill:#2250b4;}</style></defs><g id="Layer_2" data-name="Layer 2"><g id="Layer_2-2" data-name="Layer 2"><path class="cls-1" d="M65.12,18.83a1.9,1.9,0,0,0-1.54-.95c-.94-.09-3.46-1.18-6.33-4.65-.7-.84-1.42-1.78-2.17-2.76C52,6.44,48.49,1.87,43.72.35c-2.79-.9-5.84,0-8.59,2.39a3.7,3.7,0,0,1-2.44.86,3.7,3.7,0,0,1-2.44-.86C27.51.3,24.46-.55,21.67.35c-4.78,1.52-8.28,6.09-11.36,10.12-.76,1-1.48,1.92-2.17,2.76-2.88,3.47-5.4,4.56-6.34,4.65a1.93,1.93,0,0,0-1.45.81,1.9,1.9,0,0,0-.26,1.67,37.65,37.65,0,0,0,3.65,7.48,37.72,37.72,0,0,0,11.71,12v8.27a17.24,17.24,0,0,0,34.48,0V39.88C61,33,65.06,21.07,65.28,20.41A1.87,1.87,0,0,0,65.12,18.83Zm-19,29.31a13.41,13.41,0,0,1-26.82,0V27.57a11.87,11.87,0,0,1,11.5,0V48.14a1.92,1.92,0,1,0,3.83,0V27.57a11.86,11.86,0,0,1,11.49,0Zm3.83-12.91V27.15A21.81,21.81,0,0,0,53,21.71a1.89,1.89,0,0,0-.55-2.09c-1.68-1.44-9.2-7.09-13.06-8a7.26,7.26,0,0,0-5.5,1.11,2.42,2.42,0,0,1-1.21.28,2.49,2.49,0,0,1-1.21-.28A7.26,7.26,0,0,0,26,11.65c-3.86.88-11.38,6.53-13,8a1.92,1.92,0,0,0-.56,2.09,22.2,22.2,0,0,0,3.08,5.44v8.08A34.92,34.92,0,0,1,7,25.87,38.48,38.48,0,0,1,4.47,21a18.33,18.33,0,0,0,6.61-5.36c.75-.9,1.49-1.87,2.27-2.88C16.09,9.22,19.2,5.16,22.83,4c1.86-.59,3.68.55,4.88,1.62a7.52,7.52,0,0,0,5,1.82,7.5,7.5,0,0,0,5-1.82c1.2-1.07,3-2.21,4.88-1.62C46.18,5.16,49.29,9.22,52,12.8c.78,1,1.51,2,2.26,2.88A18.27,18.27,0,0,0,60.91,21,36.89,36.89,0,0,1,49.93,35.23Z"/></g></g></svg>