<svg xmlns="http://www.w3.org/2000/svg" viewBox="0 0 73.04 51.47"><defs><style>.cls-1{fill:#fff;}</style></defs><g id="Layer_2" data-name="Layer 2"><g id="Layer_2-2" data-name="Layer 2"><path class="cls-1" d="M71.51,8a9.15,9.15,0,0,0-6.45-6.5C59.36,0,36.52,0,36.52,0S13.68,0,8,1.54A9.17,9.17,0,0,0,1.53,8a103.09,103.09,0,0,0,0,35.39A9.17,9.17,0,0,0,8,49.93c5.71,1.54,28.54,1.54,28.54,1.54s22.84,0,28.54-1.54a9.17,9.17,0,0,0,6.45-6.5A103.09,103.09,0,0,0,71.51,8ZM29,36.6V14.87l19.1,10.86Z"/></g></g></svg>